<svg xmlns="http://www.w3.org/2000/svg" fill="none" viewBox="0 0 201 242">
  <path fill="#A4C639" fill-rule="evenodd" d="M147.68.736a1.501 1.501 0 0 1 2.581 1.529l-12.61 21.28c15.512 8.812 26.5 22.986 29.349 39.43H34c2.856-16.486 13.892-30.69 29.466-39.498L51.21 2.794a1.5 1.5 0 1 1 2.58-1.53l12.321 20.792c10.062-5.133 21.823-8.082 34.389-8.082 12.617 0 24.421 2.973 34.51 8.144L147.68.736ZM83 37.974a6 6 0 1 1-12 0 6 6 0 0 1 12 0Zm46 0a6 6 0 1 1-12 0 6 6 0 0 1 12 0Zm38 152.001v-120H34v120c0 8.284 6.716 15 15 15v24c0 7.179 5.82 13 13 13s13-5.821 13-13v-24h50v24c0 7.179 5.82 13 13 13s13-5.821 13-13v-24h1c8.284 0 15-6.716 15-15Zm-154-111c-7.18 0-13 5.82-13 13v48c0 7.179 5.82 13 13 13s13-5.821 13-13v-48c0-7.18-5.82-13-13-13Zm175 0c-7.18 0-13 5.82-13 13v48c0 7.179 5.82 13 13 13s13-5.821 13-13v-48c0-7.18-5.82-13-13-13Z" clip-rule="evenodd"/>
</svg>
