<svg width="201" height="242" viewBox="0 0 201 242" fill="none" xmlns="http://www.w3.org/2000/svg">
<path fill-rule="evenodd" clip-rule="evenodd" d="M34 69.9745H167V189.975C167 198.259 160.284 204.975 152 204.975H151V228.975C151 236.154 145.18 241.975 138 241.975C130.82 241.975 125 236.154 125 228.975V204.975H75V228.975C75 236.154 69.1797 241.975 62 241.975C54.8203 241.975 49 236.154 49 228.975V204.975C40.7157 204.975 34 198.259 34 189.975V69.9745ZM0 91.9745C0 84.7948 5.8203 78.9745 13 78.9745C20.1797 78.9745 26 84.7948 26 91.9745V139.975C26 147.154 20.1797 152.975 13 152.975C5.8203 152.975 0 147.154 0 139.975V91.9745ZM175 91.9745C175 84.7948 180.82 78.9745 188 78.9745C195.18 78.9745 201 84.7948 201 91.9745V139.975C201 147.154 195.18 152.975 188 152.975C180.82 152.975 175 147.154 175 139.975V91.9745Z" fill="#A4C639"/>
<path fill-rule="evenodd" clip-rule="evenodd" d="M149.736 0.209797C149.023 -0.212537 148.103 0.022842 147.68 0.735531L135.01 22.1176C124.921 16.9469 113.117 13.9745 100.5 13.9745C87.9337 13.9745 76.1727 16.9233 66.1112 22.0559L53.7907 1.26494C53.3683 0.552249 52.4482 0.316869 51.7355 0.739203C51.0228 1.16154 50.7875 2.08166 51.2098 2.79434L63.4664 23.4773C47.8923 32.2852 36.8559 46.4895 34 62.9745H167C164.151 46.5311 153.163 32.3569 137.651 23.5441L150.261 2.26494C150.684 1.55225 150.448 0.632131 149.736 0.209797ZM77 43.9745C80.3137 43.9745 83 41.2882 83 37.9745C83 34.6608 80.3137 31.9745 77 31.9745C73.6863 31.9745 71 34.6608 71 37.9745C71 41.2882 73.6863 43.9745 77 43.9745ZM123 43.9745C126.314 43.9745 129 41.2882 129 37.9745C129 34.6608 126.314 31.9745 123 31.9745C119.686 31.9745 117 34.6608 117 37.9745C117 41.2882 119.686 43.9745 123 43.9745Z" fill="#A4C639"/>
</svg>
