<svg width="201" height="242" viewBox="0 0 201 242" fill="none" xmlns="http://www.w3.org/2000/svg">
<path fill-rule="evenodd" clip-rule="evenodd" d="M147.68 0.735531C148.103 0.0228421 149.023 -0.212537 149.736 0.209797C150.448 0.632131 150.684 1.55225 150.261 2.26494L137.651 23.5441C153.163 32.3569 164.151 46.5311 167 62.9745H34C36.8559 46.4895 47.8923 32.2852 63.4664 23.4773L51.2098 2.79434C50.7875 2.08166 51.0228 1.16154 51.7355 0.739203C52.4482 0.316869 53.3683 0.552249 53.7907 1.26494L66.1112 22.0559C76.1727 16.9233 87.9337 13.9745 100.5 13.9745C113.117 13.9745 124.921 16.9469 135.01 22.1176L147.68 0.735531ZM83 37.9745C83 41.2882 80.3137 43.9745 77 43.9745C73.6863 43.9745 71 41.2882 71 37.9745C71 34.6608 73.6863 31.9745 77 31.9745C80.3137 31.9745 83 34.6608 83 37.9745ZM129 37.9745C129 41.2882 126.314 43.9745 123 43.9745C119.686 43.9745 117 41.2882 117 37.9745C117 34.6608 119.686 31.9745 123 31.9745C126.314 31.9745 129 34.6608 129 37.9745ZM167 189.975V69.9745H34V189.975C34 198.259 40.7157 204.975 49 204.975V228.975C49 236.154 54.8203 241.975 62 241.975C69.1797 241.975 75 236.154 75 228.975V204.975H125V228.975C125 236.154 130.82 241.975 138 241.975C145.18 241.975 151 236.154 151 228.975V204.975H152C160.284 204.975 167 198.259 167 189.975ZM13 78.9745C5.8203 78.9745 0 84.7948 0 91.9745V139.975C0 147.154 5.8203 152.975 13 152.975C20.1797 152.975 26 147.154 26 139.975V91.9745C26 84.7948 20.1797 78.9745 13 78.9745ZM188 78.9745C180.82 78.9745 175 84.7948 175 91.9745V139.975C175 147.154 180.82 152.975 188 152.975C195.18 152.975 201 147.154 201 139.975V91.9745C201 84.7948 195.18 78.9745 188 78.9745Z" fill="#A4C639"/>
</svg>
